# xmcd
#
# Track frame offsets: 
#        150
#        21634
#        41238
#        60391
#        87171
#        110378
#        147051
#        168554
#        192126
#        218621
#        248459
#        267926
#        301686
#
# Disc length: 4026 seconds
#
# Revision: 0
# Processed by: cddbd v1.4PL0 Copyright (c) Steve Scherf et al.
# Submitted via: ExactAudioCopy v0.90a11
#
DISCID=a90fb80d
DTITLE=4 Your Soul - 4 Your Soul
DYEAR=1900
DGENRE=
TTITLE0=Tears in Heaven
TTITLE1=100 Tears Away
TTITLE2=Coming Back to You
TTITLE3=Dust in the Wind
TTITLE4=Refugee
TTITLE5=Jah is Changing All
TTITLE6=Fire and Rain
TTITLE7=That's the Way LOVE is
TTITLE8=Ich Frag Mich
TTITLE9=Cruisin'
TTITLE10=Still Crazy After All These Years
TTITLE11=Gone at Last
TTITLE12=[empty]
EXTD=
EXTT0=
EXTT1=
EXTT2=
EXTT3=
EXTT4=
EXTT5=
EXTT6=
EXTT7=
EXTT8=
EXTT9=
EXTT10=
EXTT11=
EXTT12=
PLAYORDER=
